<svg width="30" height="30" viewBox="0 0 30 30" fill="none" xmlns="http://www.w3.org/2000/svg">
<path d="M29.5 14.9972C29.5 23.0037 23.0082 29.4944 15 29.4944C6.99178 29.4944 0.5 23.0037 0.5 14.9972C0.5 6.99071 6.99178 0.5 15 0.5C23.0082 0.5 29.5 6.99071 29.5 14.9972Z" stroke="#080A47"/>
<path d="M21.6478 11.7647C21.1989 11.9642 20.725 12.0889 20.2262 12.1637C20.725 11.8645 21.1241 11.3907 21.2987 10.8171C20.8248 11.0914 20.301 11.2909 19.7273 11.4156C19.2784 10.9418 18.6299 10.6426 17.9315 10.6426C16.5847 10.6426 15.4872 11.7398 15.4872 13.0864C15.4872 13.2859 15.5122 13.4605 15.562 13.635C13.5418 13.5353 11.721 12.5627 10.4989 11.0665C10.2993 11.4406 10.1746 11.8396 10.1746 12.2884C10.1746 13.1363 10.5986 13.8844 11.2721 14.3333C10.873 14.3083 10.4989 14.2086 10.1497 14.034V14.059C10.1497 15.256 10.9977 16.2534 12.1201 16.4779C11.9205 16.5277 11.6961 16.5527 11.4716 16.5527C11.3219 16.5527 11.1473 16.5277 10.9977 16.5028C11.3219 17.4754 12.2198 18.1985 13.2923 18.1985C12.4443 18.8469 11.3968 19.2459 10.2494 19.2459C10.0499 19.2459 9.85037 19.2459 9.67578 19.221C10.7732 19.9192 12.0453 20.3182 13.442 20.3182C17.9565 20.3182 20.4257 16.5776 20.4257 13.3358C20.4257 13.236 20.4257 13.1114 20.4257 13.0116C20.8996 12.6874 21.3236 12.2635 21.6478 11.7647Z" fill="#080A47"/>
</svg>
