<svg width="31" height="30" viewBox="0 0 31 30" fill="none" xmlns="http://www.w3.org/2000/svg">
<path d="M30.2109 14.9972C30.2109 23.0037 23.7192 29.4944 15.7109 29.4944C7.70272 29.4944 1.21094 23.0037 1.21094 14.9972C1.21094 6.99071 7.70272 0.5 15.7109 0.5C23.7192 0.5 30.2109 6.99071 30.2109 14.9972Z" stroke="#080A47"/>
<path d="M15.7151 9.05173C17.653 9.05173 17.8825 9.05899 18.648 9.09389C19.1083 9.09952 19.5642 9.18402 19.996 9.34373C20.3091 9.46444 20.5934 9.64937 20.8306 9.8866C21.0679 10.1238 21.2529 10.4081 21.3736 10.7211C21.5334 11.1528 21.6179 11.6086 21.6235 12.0688C21.6581 12.8342 21.6657 13.0637 21.6657 15.0012C21.6657 16.9387 21.6584 17.1682 21.6235 17.9336C21.6179 18.3938 21.5334 18.8496 21.3736 19.2813C21.2529 19.5943 21.0679 19.8786 20.8306 20.1158C20.5934 20.353 20.3091 20.5379 19.996 20.6587C19.5642 20.8184 19.1083 20.9029 18.648 20.9085C17.8828 20.9431 17.6533 20.9507 15.7151 20.9507C13.7768 20.9507 13.5474 20.9434 12.7821 20.9085C12.3219 20.9029 11.8659 20.8184 11.4342 20.6587C11.1211 20.5379 10.8368 20.353 10.5995 20.1158C10.3623 19.8786 10.1773 19.5943 10.0566 19.2813C9.89684 18.8496 9.81232 18.3938 9.80669 17.9336C9.77212 17.1682 9.76452 16.9387 9.76452 15.0012C9.76452 13.0637 9.77178 12.8342 9.80669 12.0688C9.81232 11.6086 9.89684 11.1528 10.0566 10.7211C10.1773 10.4081 10.3623 10.1238 10.5995 9.8866C10.8368 9.64937 11.1211 9.46444 11.4342 9.34373C11.8659 9.18402 12.3219 9.09952 12.7821 9.09389C13.5477 9.05933 13.7772 9.05173 15.7151 9.05173ZM15.7151 7.74414C13.745 7.74414 13.4969 7.75243 12.7227 7.78768C12.1203 7.79966 11.5243 7.9137 10.96 8.12495C10.476 8.30728 10.0376 8.59303 9.67535 8.96223C9.30574 9.3245 9.0197 9.76309 8.83722 10.2474C8.62593 10.8115 8.51187 11.4074 8.49989 12.0097C8.46533 12.7831 8.45703 13.0312 8.45703 15.0008C8.45703 16.9705 8.46533 17.2186 8.50058 17.9927C8.51256 18.595 8.62662 19.1909 8.83791 19.755C9.02019 20.2392 9.30599 20.6778 9.67535 21.0402C10.0378 21.4094 10.4764 21.6952 10.9607 21.8774C11.525 22.0887 12.121 22.2027 12.7234 22.2147C13.4976 22.2493 13.7447 22.2582 15.7158 22.2582C17.6869 22.2582 17.934 22.25 18.7082 22.2147C19.3106 22.2027 19.9066 22.0887 20.4709 21.8774C20.9529 21.6906 21.3906 21.4053 21.756 21.0398C22.1214 20.6742 22.4065 20.2364 22.593 19.7543C22.8043 19.1902 22.9183 18.5943 22.9303 17.992C22.9649 17.2186 22.9732 16.9705 22.9732 15.0008C22.9732 13.0312 22.9649 12.7831 22.9296 12.009C22.9176 11.4067 22.8036 10.8108 22.5923 10.2467C22.41 9.76247 22.1242 9.32388 21.7548 8.96154C21.3924 8.59225 20.9538 8.3065 20.4695 8.12425C19.9052 7.91301 19.3092 7.79897 18.7068 7.78699C17.9333 7.75243 17.6851 7.74414 15.7151 7.74414Z" fill="#080A47"/>
<path d="M15.7155 11.2773C14.9783 11.2773 14.2577 11.4959 13.6448 11.9054C13.0318 12.3148 12.5541 12.8968 12.272 13.5778C11.9899 14.2587 11.9161 15.008 12.0599 15.7308C12.2037 16.4537 12.5587 17.1177 13.08 17.6389C13.6012 18.16 14.2653 18.5149 14.9883 18.6587C15.7113 18.8025 16.4608 18.7287 17.1418 18.4467C17.8229 18.1646 18.405 17.687 18.8145 17.0742C19.2241 16.4613 19.4427 15.7409 19.4427 15.0038C19.4427 14.0155 19.05 13.0677 18.351 12.3688C17.652 11.67 16.704 11.2773 15.7155 11.2773ZM15.7155 17.4227C15.237 17.4227 14.7692 17.2809 14.3714 17.0151C13.9735 16.7493 13.6634 16.3715 13.4803 15.9295C13.2972 15.4875 13.2493 15.0012 13.3426 14.5319C13.436 14.0627 13.6664 13.6317 14.0047 13.2934C14.3431 12.9551 14.7742 12.7247 15.2435 12.6314C15.7128 12.5381 16.1992 12.586 16.6413 12.7691C17.0834 12.9521 17.4612 13.2622 17.7271 13.66C17.9929 14.0578 18.1348 14.5254 18.1348 15.0038C18.1348 15.6454 17.8799 16.2606 17.4262 16.7143C16.9725 17.1679 16.3571 17.4227 15.7155 17.4227Z" fill="#080A47"/>
<path d="M19.5897 11.9978C20.0707 11.9978 20.4607 11.6078 20.4607 11.1268C20.4607 10.6458 20.0707 10.2559 19.5897 10.2559C19.1087 10.2559 18.7188 10.6458 18.7188 11.1268C18.7188 11.6078 19.1087 11.9978 19.5897 11.9978Z" fill="#080A47"/>
</svg>
