<svg width="31" height="30" viewBox="0 0 31 30" fill="none" xmlns="http://www.w3.org/2000/svg">
<path d="M30.0664 14.9972C30.0664 23.0037 23.5746 29.4944 15.5664 29.4944C7.55819 29.4944 1.06641 23.0037 1.06641 14.9972C1.06641 6.99071 7.55819 0.5 15.5664 0.5C23.5746 0.5 30.0664 6.99071 30.0664 14.9972Z" stroke="#080A47"/>
<path fill-rule="evenodd" clip-rule="evenodd" d="M16.2162 7.74414C12.3687 7.74414 9.27344 10.8389 9.27344 14.6856C9.27344 17.7514 11.2695 20.3544 14.0176 21.28C14.3648 21.3378 14.4805 21.1354 14.4805 20.9329C14.4805 20.7594 14.4805 20.3255 14.4805 19.7471C12.5423 20.1809 12.1373 18.8215 12.1373 18.8215C11.8191 18.0117 11.3563 17.8092 11.3563 17.8092C10.7198 17.3754 11.4141 17.3754 11.4141 17.3754C12.1084 17.4332 12.4845 18.0985 12.4845 18.0985C13.0919 19.1686 14.1044 18.8505 14.5094 18.6769C14.5673 18.2142 14.7408 17.9249 14.9433 17.7514C13.4102 17.5779 11.7902 16.9705 11.7902 14.3096C11.7902 13.5576 12.0505 12.9213 12.5134 12.4585C12.4555 12.285 12.1952 11.5909 12.5712 10.6075C12.5712 10.6075 13.1498 10.434 14.4805 11.3306C15.0301 11.1859 15.6376 11.0992 16.2162 11.0992C16.7947 11.0992 17.4022 11.1859 17.9519 11.3306C19.2826 10.434 19.8611 10.6075 19.8611 10.6075C20.2372 11.5619 20.0058 12.2561 19.919 12.4585C20.3529 12.9502 20.6422 13.5576 20.6422 14.3096C20.6422 16.9705 19.0222 17.5489 17.4601 17.7225C17.7204 17.9249 17.9229 18.3588 17.9229 18.9951C17.9229 19.9206 17.9229 20.6726 17.9229 20.904C17.9229 21.0775 18.0387 21.3089 18.4147 21.251C21.1629 20.3544 23.1589 17.7514 23.1589 14.6856C23.1589 10.8389 20.0636 7.74414 16.2162 7.74414Z" fill="#080A47"/>
</svg>
