<svg width="50" height="50" viewBox="0 0 50 50" fill="none" xmlns="http://www.w3.org/2000/svg">
<path d="M41.2852 49.5714L32.7385 41.0261L28.5957 45.1689C28.2381 45.5265 27.7189 45.6739 27.2238 45.5594C26.7289 45.4422 26.3312 45.0788 26.171 44.5967L17.8841 19.7373C17.7081 19.2108 17.8454 18.63 18.2374 18.238C18.6279 17.8475 19.2102 17.7045 19.7366 17.8847L44.5961 26.1716C45.0782 26.3319 45.4415 26.7296 45.5588 27.2245C45.6747 27.718 45.5273 28.2373 45.1683 28.5964L41.0255 32.7391L49.5707 41.2857C50.1429 41.8579 50.1429 42.7849 49.5707 43.3571L43.3565 49.5713C42.7843 50.1436 41.8573 50.1436 41.2852 49.5714Z" fill="white"/>
<path d="M19.043 11.7188C18.2333 11.7188 17.5781 11.0636 17.5781 10.2539V1.46484C17.5781 0.655176 18.2333 0 19.043 0C19.8526 0 20.5078 0.655176 20.5078 1.46484V10.2539C20.5078 11.0636 19.8526 11.7188 19.043 11.7188Z" fill="white"/>
<path d="M11.7931 13.8645L5.57744 7.64889C5.00527 7.07672 5.00527 6.14967 5.57744 5.5775C6.14961 5.00533 7.07666 5.00533 7.64883 5.5775L13.8644 11.793C14.4365 12.3652 14.4365 13.2923 13.8644 13.8644C13.2922 14.4367 12.3652 14.4367 11.7931 13.8645Z" fill="white"/>
<path d="M5.57732 32.5088C5.00515 31.9366 5.00515 31.0095 5.57732 30.4374L11.7928 24.2219C12.365 23.6497 13.2921 23.6497 13.8642 24.2219C14.4364 24.794 14.4364 25.7211 13.8642 26.2932L7.64871 32.5088C7.07654 33.0809 6.14959 33.0809 5.57732 32.5088Z" fill="white"/>
<path d="M24.2221 13.8645C23.6499 13.2923 23.6499 12.3653 24.2221 11.7931L30.4376 5.57756C31.0098 5.0054 31.9368 5.0054 32.509 5.57756C33.0812 6.14973 33.0812 7.07678 32.509 7.64895L26.2935 13.8645C25.7213 14.4366 24.7944 14.4366 24.2221 13.8645Z" fill="white"/>
<path d="M10.2539 20.5078H1.46484C0.655176 20.5078 0 19.8526 0 19.043C0 18.2333 0.655176 17.5781 1.46484 17.5781H10.2539C11.0636 17.5781 11.7188 18.2333 11.7188 19.043C11.7188 19.8526 11.0636 20.5078 10.2539 20.5078Z" fill="white"/>
</svg>
