<svg width="108" height="18" viewBox="0 0 108 18" fill="none" xmlns="http://www.w3.org/2000/svg">
<path fill-rule="evenodd" clip-rule="evenodd" d="M9.35279 0.230779L11.9212 5.68903L17.6625 6.56451C17.8112 6.58761 17.9344 6.69674 17.9807 6.84619C18.027 6.99563 17.9884 7.15959 17.8809 7.2694L13.7272 11.5171L14.7079 17.5162C14.7337 17.6709 14.6731 17.8275 14.5517 17.9199C14.4302 18.0124 14.2691 18.0246 14.1362 17.9515L9.00059 15.1197L3.86502 17.9523C3.73217 18.0257 3.57094 18.0137 3.44943 17.9212C3.32793 17.8288 3.26734 17.6722 3.29327 17.5174L4.27397 11.5171L0.119103 7.2694C0.0116435 7.15959 -0.027039 6.99563 0.0192579 6.84619C0.0655548 6.69674 0.188839 6.58761 0.337471 6.56451L6.07884 5.68903L8.64838 0.230779C8.71377 0.0896426 8.85058 0 9.00059 0C9.1506 0 9.28741 0.0896426 9.35279 0.230779Z" fill="#00B67A"/>
<path fill-rule="evenodd" clip-rule="evenodd" d="M31.8528 0.230779L34.4212 5.68903L40.1625 6.56451C40.3112 6.58761 40.4344 6.69674 40.4807 6.84619C40.527 6.99563 40.4884 7.15959 40.3809 7.2694L36.2272 11.5171L37.2079 17.5162C37.2337 17.6709 37.1731 17.8275 37.0517 17.9199C36.9302 18.0124 36.7691 18.0246 36.6362 17.9515L31.5006 15.1197L26.365 17.9523C26.2322 18.0257 26.0709 18.0137 25.9494 17.9212C25.8279 17.8288 25.7673 17.6722 25.7933 17.5174L26.774 11.5171L22.6191 7.2694C22.5116 7.15959 22.473 6.99563 22.5193 6.84619C22.5656 6.69674 22.6888 6.58761 22.8375 6.56451L28.5788 5.68903L31.1484 0.230779C31.2138 0.0896426 31.3506 0 31.5006 0C31.6506 0 31.7874 0.0896426 31.8528 0.230779Z" fill="#00B67A"/>
<path fill-rule="evenodd" clip-rule="evenodd" d="M54.3528 0.230779L56.9212 5.68903L62.6625 6.56451C62.8112 6.58761 62.9344 6.69674 62.9807 6.84619C63.027 6.99563 62.9884 7.15959 62.8809 7.2694L58.7272 11.5171L59.7079 17.5162C59.7337 17.6709 59.6731 17.8275 59.5517 17.9199C59.4302 18.0124 59.2691 18.0246 59.1362 17.9515L54.0006 15.1197L48.865 17.9523C48.7322 18.0257 48.5709 18.0137 48.4494 17.9212C48.3279 17.8288 48.2673 17.6722 48.2933 17.5174L49.274 11.5171L45.1191 7.2694C45.0116 7.15959 44.973 6.99563 45.0193 6.84619C45.0656 6.69674 45.1888 6.58761 45.3375 6.56451L51.0788 5.68903L53.6484 0.230779C53.7138 0.0896426 53.8506 0 54.0006 0C54.1506 0 54.2874 0.0896426 54.3528 0.230779Z" fill="#00B67A"/>
<path fill-rule="evenodd" clip-rule="evenodd" d="M76.8528 0.230779L79.4212 5.68903L85.1625 6.56451C85.3112 6.58761 85.4344 6.69674 85.4807 6.84619C85.527 6.99563 85.4884 7.15959 85.3809 7.2694L81.2272 11.5171L82.2079 17.5162C82.2337 17.6709 82.1731 17.8275 82.0517 17.9199C81.9302 18.0124 81.7691 18.0246 81.6362 17.9515L76.5006 15.1197L71.365 17.9523C71.2322 18.0257 71.0709 18.0137 70.9494 17.9212C70.8279 17.8288 70.7673 17.6722 70.7933 17.5174L71.774 11.5171L67.6191 7.2694C67.5116 7.15959 67.473 6.99563 67.5193 6.84619C67.5656 6.69674 67.6888 6.58761 67.8375 6.56451L73.5788 5.68903L76.1484 0.230779C76.2138 0.0896426 76.3506 0 76.5006 0C76.6506 0 76.7874 0.0896426 76.8528 0.230779Z" fill="#00B67A"/>
<path fill-rule="evenodd" clip-rule="evenodd" d="M99.3528 0.230779L101.921 5.68903L107.663 6.56451C107.811 6.58761 107.934 6.69674 107.981 6.84619C108.027 6.99563 107.988 7.15959 107.881 7.2694L103.727 11.5171L104.708 17.5162C104.734 17.6709 104.673 17.8275 104.552 17.9199C104.43 18.0124 104.269 18.0246 104.136 17.9515L99.0006 15.1197L93.865 17.9523C93.7322 18.0257 93.5709 18.0137 93.4494 17.9212C93.3279 17.8288 93.2673 17.6722 93.2933 17.5174L94.274 11.5171L90.1191 7.2694C90.0116 7.15959 89.973 6.99563 90.0193 6.84619C90.0656 6.69674 90.1888 6.58761 90.3375 6.56451L96.0788 5.68903L98.6484 0.230779C98.7138 0.0896426 98.8506 0 99.0006 0C99.1506 0 99.2874 0.0896426 99.3528 0.230779Z" fill="#00B67A"/>
</svg>
